<mxfile host="app.diagrams.net" modified="2024-02-13T21:16:08.739Z" agent="Mozilla/5.0 (Macintosh; Intel Mac OS X 10_15_7) AppleWebKit/537.36 (KHTML, like Gecko) Chrome/121.0.0.0 Safari/537.36" etag="hYVelGRbFvZxw-Gn06NR" version="23.1.4" type="google">
  <diagram name="Page-1" id="IiVhSSq0kCIkm6o7_Kel">
    <mxGraphModel dx="1349" dy="1006" grid="0" gridSize="10" guides="1" tooltips="1" connect="1" arrows="1" fold="1" page="0" pageScale="1" pageWidth="850" pageHeight="1100" math="0" shadow="0">
      <root>
        <mxCell id="0" />
        <mxCell id="1" parent="0" />
        <mxCell id="f8FfLeFAksc3TZZyF7jK-1" value="&lt;font style=&quot;font-size: 40px;&quot;&gt;Trend&lt;/font&gt;" style="rounded=1;whiteSpace=wrap;html=1;" vertex="1" parent="1">
          <mxGeometry x="283" y="117" width="219" height="154" as="geometry" />
        </mxCell>
        <mxCell id="8UDqs-kd4OGXlRK18o1F-1" value="" style="endArrow=classic;html=1;rounded=0;exitX=0.018;exitY=0.078;exitDx=0;exitDy=0;exitPerimeter=0;" edge="1" parent="1" source="f8FfLeFAksc3TZZyF7jK-1">
          <mxGeometry width="50" height="50" relative="1" as="geometry">
            <mxPoint x="228" y="154" as="sourcePoint" />
            <mxPoint x="124" y="-28" as="targetPoint" />
          </mxGeometry>
        </mxCell>
        <mxCell id="f8FfLeFAksc3TZZyF7jK-9" value="Meeting&amp;nbsp;Confirmation" style="edgeLabel;html=1;align=center;verticalAlign=middle;resizable=0;points=[];;fontSize=12;rotation=45;" vertex="1" connectable="0" parent="8UDqs-kd4OGXlRK18o1F-1">
          <mxGeometry x="0.0318" y="4" relative="1" as="geometry">
            <mxPoint x="-10" y="2" as="offset" />
          </mxGeometry>
        </mxCell>
        <mxCell id="8UDqs-kd4OGXlRK18o1F-2" value="" style="endArrow=classic;html=1;rounded=0;entryX=0.087;entryY=-0.032;entryDx=0;entryDy=0;entryPerimeter=0;fontFamily=Helvetica;" edge="1" parent="1" target="f8FfLeFAksc3TZZyF7jK-1">
          <mxGeometry width="50" height="50" relative="1" as="geometry">
            <mxPoint x="132" y="-54" as="sourcePoint" />
            <mxPoint x="301" y="106" as="targetPoint" />
            <Array as="points" />
          </mxGeometry>
        </mxCell>
        <mxCell id="f8FfLeFAksc3TZZyF7jK-7" value="Post Faculty Meeting Times/Dates" style="edgeLabel;html=1;align=center;verticalAlign=middle;resizable=0;points=[];;fontSize=12;rotation=45;" vertex="1" connectable="0" parent="8UDqs-kd4OGXlRK18o1F-2">
          <mxGeometry x="-0.1549" y="2" relative="1" as="geometry">
            <mxPoint x="30" y="7" as="offset" />
          </mxGeometry>
        </mxCell>
        <mxCell id="f8FfLeFAksc3TZZyF7jK-5" value="Admin Account" style="rounded=0;whiteSpace=wrap;html=1;" vertex="1" parent="1">
          <mxGeometry x="292.5" y="430" width="200" height="108" as="geometry" />
        </mxCell>
        <mxCell id="f8FfLeFAksc3TZZyF7jK-6" value="Faculty/Staff Account" style="rounded=0;whiteSpace=wrap;html=1;" vertex="1" parent="1">
          <mxGeometry x="-22" y="-129" width="160" height="99" as="geometry" />
        </mxCell>
        <mxCell id="8UDqs-kd4OGXlRK18o1F-3" value="Student Account" style="rounded=0;whiteSpace=wrap;html=1;" vertex="1" parent="1">
          <mxGeometry x="622" y="-129" width="160" height="99" as="geometry" />
        </mxCell>
        <mxCell id="8UDqs-kd4OGXlRK18o1F-7" value="" style="endArrow=classic;html=1;rounded=0;" edge="1" parent="1">
          <mxGeometry width="50" height="50" relative="1" as="geometry">
            <mxPoint x="620" y="-53" as="sourcePoint" />
            <mxPoint x="477" y="114" as="targetPoint" />
          </mxGeometry>
        </mxCell>
        <mxCell id="8UDqs-kd4OGXlRK18o1F-8" value="" style="endArrow=classic;html=1;rounded=0;entryX=0.075;entryY=1.02;entryDx=0;entryDy=0;entryPerimeter=0;exitX=0.991;exitY=0.071;exitDx=0;exitDy=0;exitPerimeter=0;" edge="1" parent="1" source="f8FfLeFAksc3TZZyF7jK-1" target="8UDqs-kd4OGXlRK18o1F-3">
          <mxGeometry width="50" height="50" relative="1" as="geometry">
            <mxPoint x="563" y="128" as="sourcePoint" />
            <mxPoint x="613" y="78" as="targetPoint" />
          </mxGeometry>
        </mxCell>
        <mxCell id="IE2bKa2V5iZldFfltH2h-1" value="" style="endArrow=classic;html=1;rounded=0;entryX=0.461;entryY=1;entryDx=0;entryDy=0;entryPerimeter=0;" edge="1" parent="1" target="f8FfLeFAksc3TZZyF7jK-1">
          <mxGeometry width="50" height="50" relative="1" as="geometry">
            <mxPoint x="384" y="423" as="sourcePoint" />
            <mxPoint x="388" y="344" as="targetPoint" />
          </mxGeometry>
        </mxCell>
        <mxCell id="IE2bKa2V5iZldFfltH2h-2" value="" style="endArrow=classic;html=1;rounded=0;" edge="1" parent="1">
          <mxGeometry width="50" height="50" relative="1" as="geometry">
            <mxPoint x="403" y="273" as="sourcePoint" />
            <mxPoint x="405" y="425" as="targetPoint" />
          </mxGeometry>
        </mxCell>
        <mxCell id="8UDqs-kd4OGXlRK18o1F-9" value="Creates events&amp;nbsp;" style="text;html=1;align=center;verticalAlign=middle;whiteSpace=wrap;rounded=0;rotation=-45;" vertex="1" parent="1">
          <mxGeometry x="488" y="3" width="100" height="30" as="geometry" />
        </mxCell>
        <mxCell id="8UDqs-kd4OGXlRK18o1F-11" value="Event Confirmation" style="text;html=1;align=center;verticalAlign=middle;resizable=0;points=[];autosize=1;strokeColor=none;fillColor=none;rotation=-50;" vertex="1" parent="1">
          <mxGeometry x="521" y="48" width="120" height="26" as="geometry" />
        </mxCell>
        <mxCell id="8UDqs-kd4OGXlRK18o1F-13" value="&lt;span style=&quot;color: rgb(0, 0, 0); font-family: Helvetica; font-style: normal; font-variant-ligatures: normal; font-variant-caps: normal; font-weight: 400; letter-spacing: normal; orphans: 2; text-align: center; text-indent: 0px; text-transform: none; widows: 2; word-spacing: 0px; -webkit-text-stroke-width: 0px; background-color: rgb(255, 255, 255); text-decoration-thickness: initial; text-decoration-style: initial; text-decoration-color: initial; float: none; display: inline !important;&quot;&gt;&lt;font style=&quot;font-size: 14px;&quot;&gt;Updates and over views app.&lt;/font&gt;&lt;/span&gt;" style="text;whiteSpace=wrap;html=1;rotation=0;" vertex="1" parent="1">
          <mxGeometry x="229" y="315" width="152.6" height="48" as="geometry" />
        </mxCell>
        <mxCell id="f8FfLeFAksc3TZZyF7jK-10" value="Sends Admins reports of bugs/issues." style="text;html=1;align=center;verticalAlign=middle;resizable=0;points=[];autosize=1;strokeColor=none;fillColor=none;;fontSize=16;" vertex="1" parent="1">
          <mxGeometry x="401" y="325" width="286" height="31" as="geometry" />
        </mxCell>
        <mxCell id="8UDqs-kd4OGXlRK18o1F-14" value="Account confimation" style="ellipse;whiteSpace=wrap;html=1;" vertex="1" parent="1">
          <mxGeometry x="642" y="154" width="120" height="80" as="geometry" />
        </mxCell>
        <mxCell id="8UDqs-kd4OGXlRK18o1F-15" value="Account confimation" style="ellipse;whiteSpace=wrap;html=1;" vertex="1" parent="1">
          <mxGeometry x="-2" y="154" width="120" height="80" as="geometry" />
        </mxCell>
        <mxCell id="8UDqs-kd4OGXlRK18o1F-17" value="" style="endArrow=classic;html=1;rounded=0;exitX=0.5;exitY=0;exitDx=0;exitDy=0;entryX=0.5;entryY=1;entryDx=0;entryDy=0;" edge="1" parent="1" source="8UDqs-kd4OGXlRK18o1F-15" target="f8FfLeFAksc3TZZyF7jK-6">
          <mxGeometry width="50" height="50" relative="1" as="geometry">
            <mxPoint x="20" y="127" as="sourcePoint" />
            <mxPoint x="52" y="-27" as="targetPoint" />
          </mxGeometry>
        </mxCell>
        <mxCell id="8UDqs-kd4OGXlRK18o1F-18" value="" style="endArrow=classic;html=1;rounded=0;entryX=1;entryY=0.5;entryDx=0;entryDy=0;exitX=0;exitY=0.5;exitDx=0;exitDy=0;" edge="1" parent="1" source="f8FfLeFAksc3TZZyF7jK-1" target="8UDqs-kd4OGXlRK18o1F-15">
          <mxGeometry width="50" height="50" relative="1" as="geometry">
            <mxPoint x="180" y="268" as="sourcePoint" />
            <mxPoint x="230" y="218" as="targetPoint" />
          </mxGeometry>
        </mxCell>
        <mxCell id="8UDqs-kd4OGXlRK18o1F-19" value="" style="endArrow=classic;html=1;rounded=0;entryX=0;entryY=0.5;entryDx=0;entryDy=0;exitX=1;exitY=0.5;exitDx=0;exitDy=0;" edge="1" parent="1" source="f8FfLeFAksc3TZZyF7jK-1" target="8UDqs-kd4OGXlRK18o1F-14">
          <mxGeometry width="50" height="50" relative="1" as="geometry">
            <mxPoint x="557" y="226" as="sourcePoint" />
            <mxPoint x="607" y="176" as="targetPoint" />
          </mxGeometry>
        </mxCell>
        <mxCell id="8UDqs-kd4OGXlRK18o1F-20" value="" style="endArrow=classic;html=1;rounded=0;entryX=0.5;entryY=1;entryDx=0;entryDy=0;exitX=0.5;exitY=0;exitDx=0;exitDy=0;" edge="1" parent="1" source="8UDqs-kd4OGXlRK18o1F-14" target="8UDqs-kd4OGXlRK18o1F-3">
          <mxGeometry width="50" height="50" relative="1" as="geometry">
            <mxPoint x="687" y="112" as="sourcePoint" />
            <mxPoint x="737" y="62" as="targetPoint" />
          </mxGeometry>
        </mxCell>
      </root>
    </mxGraphModel>
  </diagram>
</mxfile>
